# xmcd
#
# Track frame offsets:
#	150
#	26525
#	44032
#	62357
#	96602
#	117485
#	136722
#	161702
#
# Disc length: 2574 seconds
#
# Revision: 1
# Processed by: cddbd v1.4PL0 Copyright (c) Steve Scherf et al.
# Submitted via: CDmax 1.8
#
DISCID=6d0a0c08
DTITLE=Eddy "The Chief" Clearwater - Flimdoozie
DYEAR=2001
DGENRE=Blues
TTITLE0=All about the Blues
TTITLE1=Sugar Baby
TTITLE2=Do this Town Tonight
TTITLE3=Black Night - Falling Down Heavy
TTITLE4=Flimdoozie
TTITLE5=IRS Man
TTITLE6=Sail the Ship
TTITLE7=Don't take my Blues
EXTD=
EXTT0=
EXTT1=
EXTT2=
EXTT3=
EXTT4=
EXTT5=
EXTT6=
EXTT7=
PLAYORDER=
